<?xml version="1.0" encoding="UTF-8"?>
<svg xmlns="http://www.w3.org/2000/svg" xmlns:xlink="http://www.w3.org/1999/xlink" id="Layer_1" data-name="Layer 1" width="183.42" height="271.71" viewBox="0 0 183.42 271.71">
  <defs>
    <style>.cls-1{fill:none;clip-rule:evenodd;}.cls-2{clip-path:url(#clip-path);}.cls-3{fill:url(#linear-gradient);}.cls-4{clip-path:url(#clip-path-2);}.cls-5{fill:url(#linear-gradient-2);}.cls-6{fill:url(#linear-gradient-3);}</style>
    <clipPath id="clip-path">
      <path class="cls-1" d="M137.37,138a115.38,115.38,0,0,0-6.17,14.45c4.1,8.24,7.6,16.78,9.4,25.83,3.45,17.32-1.78,32.11-12.65,45.33a61.52,61.52,0,0,1-21.85-6,48.29,48.29,0,0,1-6.7-4.09,43.74,43.74,0,0,0,4-3.89c11.26-12.4,16.12-29.29,20.61-44.83,1.6-5.53,3.16-11.17,4.92-16.76a152.61,152.61,0,0,1,5.58-15.22,86.67,86.67,0,0,1,7.3-13.56,53.16,53.16,0,0,1,6.46-8c9.19-9.26,21-13.83,34.56-15.16-17.49-2.14-35.29-.06-48,14a60.81,60.81,0,0,0-7.27,9.94c-5.28-10-10-20.28-12.25-31.36-3.47-17.35,1.8-32.14,12.66-45.36-13.89,10.85-25,24.91-24.09,43.86.81,16.73,9.31,32.11,17.13,46.28l.07.12c-2.73,7-4.84,14.33-6.86,21.35-4.47,15.48-8.66,31.85-17.79,45.54a54,54,0,0,1-4.68,6.06A54.16,54.16,0,0,1,87,200.55C77.9,186.87,73.7,170.49,69.24,155c-2-7-4.13-14.31-6.87-21.35l.07-.12C70.26,119.37,78.76,104,79.57,87.27c.91-19-10.2-33-24.09-43.86,10.86,13.22,16.12,28,12.66,45.36-2.21,11.08-7,21.41-12.25,31.36a61.19,61.19,0,0,0-7.27-9.94C35.87,96.13,18.08,94,.58,96.19c13.6,1.33,25.38,5.9,34.56,15.16a53.2,53.2,0,0,1,6.46,8,87,87,0,0,1,7.29,13.56,152.63,152.63,0,0,1,5.58,15.21c1.76,5.59,3.33,11.24,4.92,16.77,4.49,15.55,9.35,32.44,20.61,44.83a43.74,43.74,0,0,0,4,3.89,48.26,48.26,0,0,1-6.7,4.09,61.52,61.52,0,0,1-21.85,6h0c-10.86-13.22-16.1-28-12.64-45.33,1.81-9,5.3-17.59,9.4-25.83A115.84,115.84,0,0,0,46.05,138C39,151,32.12,164.85,31.4,179.82c-.91,18.94,10.18,33,24.06,43.84h0c8.9,1.08,17.87,1.07,26.21-1.06a46.48,46.48,0,0,0,8.25-2.94c.6-.28,1.19-.57,1.77-.88.59.31,1.18.61,1.78.88a45.94,45.94,0,0,0,8.24,2.94c8.34,2.13,17.31,2.15,26.21,1.06h0c13.88-10.85,25-24.9,24.06-43.84-.72-15-7.61-28.86-14.65-41.77"></path>
    </clipPath>
    <linearGradient id="linear-gradient" x1="0.58" y1="134.08" x2="182.84" y2="134.08" gradientUnits="userSpaceOnUse">
      <stop offset="0" stop-color="#f3bc18"></stop>
      <stop offset="0.25" stop-color="#dbb653"></stop>
      <stop offset="0.55" stop-color="#f5e08e"></stop>
      <stop offset="0.81" stop-color="#e8b932"></stop>
      <stop offset="1" stop-color="#c5802a"></stop>
    </linearGradient>
    <clipPath id="clip-path-2">
      <path class="cls-1" d="M91.71,67.34c0-18.36,10.1-33.24,22.55-33.24C101.81,34.1,91.71,19.21,91.71.86c0,18.36-10.1,33.24-22.55,33.24C81.62,34.1,91.71,49,91.71,67.34"></path>
    </clipPath>
    <linearGradient id="linear-gradient-2" x1="69.16" y1="34.1" x2="114.26" y2="34.1" xlink:href="#linear-gradient"></linearGradient>
    <linearGradient id="linear-gradient-3" x1="28.57" y1="258.79" x2="154.85" y2="258.79" gradientUnits="userSpaceOnUse">
      <stop offset="0" stop-color="#201400"></stop>
      <stop offset="0.5" stop-color="#5a4924"></stop>
      <stop offset="1" stop-color="#201400"></stop>
    </linearGradient>
  </defs>
  <title>Homepage-logo-13</title>
  <g class="cls-2">
    <rect class="cls-3" x="0.58" y="43.41" width="182.26" height="181.36"></rect>
  </g>
  <g class="cls-4">
    <rect class="cls-5" x="69.16" y="0.86" width="45.1" height="66.48"></rect>
  </g>
  <path class="cls-6" d="M40.42,269.63A9.5,9.5,0,0,0,48.19,266a11.26,11.26,0,0,0,2.62-7.22,10.83,10.83,0,0,0-2.66-7.22A10.25,10.25,0,0,0,35,249.53a10.37,10.37,0,0,0-3.77,4.21,11,11,0,0,0,.08,10.35,10.63,10.63,0,0,0,3.6,4,9.79,9.79,0,0,0,5.49,1.56m0-22.91A11.25,11.25,0,0,1,49,250.48a11.75,11.75,0,0,1,3.3,8.32,12.22,12.22,0,0,1-1.54,5.89,12,12,0,0,1-4.15,4.44,11.22,11.22,0,0,1-6.19,1.74,11,11,0,0,1-8.75-3.93,12,12,0,0,1-3.11-8.06,12.39,12.39,0,0,1,3.06-8.17A10.88,10.88,0,0,1,40.42,246.72Zm15,.4h5a11.65,11.65,0,0,1,8.78,3.41,11,11,0,0,1,3.11,7.91,12.07,12.07,0,0,1-3.27,8.8,10.12,10.12,0,0,1-7.51,3.22H58v-1.3h3a9.56,9.56,0,0,0,5.53-1.66,8.84,8.84,0,0,0,3.17-3.74,12.65,12.65,0,0,0,1.12-4.89,12,12,0,0,0-.94-4.59A8.63,8.63,0,0,0,66,249.82a11.82,11.82,0,0,0-5.85-1.4H56.83v22H55.47Zm21.77,0v6.56a5.22,5.22,0,0,0,3,5.07,5.86,5.86,0,0,0,2.65.65A5.32,5.32,0,0,0,88,256.55a6.14,6.14,0,0,0,.68-2.86v-6.56h1.43v6.44a6.94,6.94,0,0,1-2.19,5.39,6.2,6.2,0,0,1-4.23,1.75v9.76H82.26V260.7a6,6,0,0,1-4.66-2.19,7.14,7.14,0,0,1-1.8-4.83v-6.56Zm40,0v1.23h-6.6a10.24,10.24,0,0,0-4.26.67,3.69,3.69,0,0,0-2,3.5,1.33,1.33,0,0,1,.07.4q.07,2.2,2.6,3.41a45.05,45.05,0,0,0,5.27,1.78,11.77,11.77,0,0,1,4.81,2.44,5.55,5.55,0,0,1,1.48,4.1,6.78,6.78,0,0,1,0,.77,5.19,5.19,0,0,1-4.34,4.68,14.37,14.37,0,0,1-3.52.37h-7.75v-1.3h7.81q4.28,0,5.69-2.06a3.55,3.55,0,0,0,.68-1.85,4.92,4.92,0,0,0-.82-3,6.07,6.07,0,0,0-2.59-2,25.61,25.61,0,0,0-3.15-1.09c-.89-.26-2-.59-3.26-1q-3.8-1.37-4.29-4.68a5.9,5.9,0,0,0-.07-1q.17-5.35,6.8-5.35h7.52Zm7.49,12.68h4.53a5.36,5.36,0,0,0,4.11-1.68,5.83,5.83,0,0,0,1.55-4.2,6.09,6.09,0,0,0-2.05-4.84A5.15,5.15,0,0,0,129.2,248q-3.18.08-4.49,1.88a7,7,0,0,0-1.31,4.24v16.39H122V254.22q0-5.17,3.78-6.8a8.39,8.39,0,0,1,3.36-.7q4.37,0,6.23,3.25a7.85,7.85,0,0,1,.92,4.1,6.71,6.71,0,0,1-7,7h-4.58Zm15.45,10.65h-1.37V254.57a9.08,9.08,0,0,1,.86-3.85q1.86-4,7.17-4,5.09,0,7.12,3.92a8.65,8.65,0,0,1,.93,4v15.82h-1.43V259.07H141.5v-1.23h11.92v-3.77a6.39,6.39,0,0,0-.84-3.15c-1.1-1.93-3-2.9-5.78-2.9s-4.62.93-5.79,2.8a6.34,6.34,0,0,0-.88,3.4Z"></path>
</svg>
